<svg xmlns="http://www.w3.org/2000/svg" width="254" height="254"><path fill="#b4fff4" d="M170.4 177.1L155 151.8c2.8-9.8 5.1-20.8 5.1-31.5 0-1.4-.1-2.8-.1-4.2-1.6-28.3-12.5-38.4-20.7-46.6-3.9-3.8-6.8-7.2-8.9-11.9-.1-.1-.1-.1-.1-.2a8 8 0 0 0 3.4-1.2 4.8 4.8 0 0 0 2.3-4.3l-.4-1c-.7-.6-2.7-1-5.8-1.2a19.4 19.4 0 0 1 0-5.4c.2-1 .2-1 1.5-1.2h.3a1.9 1.9 0 0 0 1.7-1.1c.5-1.1-.2-2.3-.6-3.1s-.2-.2-.1-.2l-.2-.5c-2.2-5.4-3.4-9.2-3.4-11.3s-.6-3.4-1.1-3.7a1.2 1.2 0 0 0-1.4 0c-.3.2-1.2.7-1.2 3.7 0 1.4-.5 4.5-3.3 11.4l-.2.4v.2a5.2 5.2 0 0 0-.8 2.3 1.1 1.1 0 0 0 .2.8 1.9 1.9 0 0 0 1.7 1.1h.2c1.4.2 1.4.2 1.5 1.2a20.2 20.2 0 0 1 .3 3.3 14.9 14.9 0 0 1-.2 2.1c-3.1.2-5.1.6-5.8 1.2l-.4 1a4.8 4.8 0 0 0 2.3 4.3 7.6 7.6 0 0 0 3.4 1.2.3.3 0 0 1-.1.2c-2 4.8-5.4 8.2-9.3 12.1-8.2 8.1-19.1 18.2-20.7 46.4 0 1.4-.1 2.8-.1 4.2 0 10.7 2.3 21.7 5.1 31.5l-15.5 25.3-9.3 53.9h10.5l9.9-34.2 16.4-13.9h.1l.6.2 1.8.6.8 4.6c.1.9.5 2.9 8.3 3.5V231h8.6v-39.1c8.1-.5 8.5-2.6 8.7-3.5l.8-4.6 1.8-.6h.4l16.3 13.7 9.9 34.2h10.5z"/></svg>